<svg xmlns="http://www.w3.org/2000/svg" xmlns:xlink="http://www.w3.org/1999/xlink" version="1.1" width="256" height="256" viewBox="0 0 256 256" xml:space="preserve">

<defs>
</defs>
<g style="stroke: none; stroke-width: 0; stroke-dasharray: none; stroke-linecap: butt; stroke-linejoin: miter; stroke-miterlimit: 10; fill: none; fill-rule: nonzero; opacity: 1;" transform="translate(1.4065934065934016 1.4065934065934016) scale(2.81 2.81)" >
	<path d="M 79.079 59.51 c -0.537 -0.63 -1.483 -0.708 -2.114 -0.171 L 46.5 85.255 V 1.5 C 46.5 0.671 45.829 0 45 0 s -1.5 0.671 -1.5 1.5 v 83.755 L 13.035 59.339 c -0.63 -0.536 -1.577 -0.461 -2.114 0.171 c -0.537 0.631 -0.46 1.577 0.17 2.114 l 32.938 28.019 c 0.016 0.014 0.038 0.019 0.054 0.032 c 0.09 0.07 0.182 0.138 0.288 0.187 c 0.026 0.012 0.053 0.016 0.079 0.026 c 0.032 0.013 0.063 0.022 0.095 0.032 C 44.694 89.968 44.847 90 45 90 c 0 0 0 0 0 0 s 0 0 0 0 c 0.153 0 0.306 -0.032 0.455 -0.08 c 0.032 -0.01 0.063 -0.019 0.094 -0.032 c 0.026 -0.01 0.053 -0.015 0.079 -0.027 c 0.106 -0.049 0.198 -0.117 0.288 -0.187 c 0.017 -0.013 0.038 -0.018 0.054 -0.032 l 32.937 -28.019 C 79.539 61.087 79.616 60.141 79.079 59.51 z" style="stroke: none; stroke-width: 1; stroke-dasharray: none; stroke-linecap: butt; stroke-linejoin: miter; stroke-miterlimit: 10; fill: rgb(0,0,0); fill-rule: nonzero; opacity: 1;" transform=" matrix(1 0 0 1 0 0) " stroke-linecap="round" />
</g>
</svg>